<svg xmlns="http://www.w3.org/2000/svg" width="32" version="1" height="32" viewBox="0 0 32 32"><path d="M5.5 3.93l.143-.124c-.048.04-.096.083-.144.124zM23.012 9.111c-.02-.357-.451-.493-.748-.648.015-.328.102-.07.082-.386-.102-.004-.164-.02-.261.02-.23.103-.103.132-.103.169.01.176.231-.037-.005.181-.066.057-.175.057-.256.066-.159-.222-.148-.333-.456-.34a1.55 1.55 0 0 0-.332.528c-.103.304-.031.095-.02.423-.006.012 0 .029 0 .041-.006.197-.052-.037-.021.144.24-.05.056-.045.236-.103.169-.058.687-.213.835-.176.353.081.65.36 1.05.081zM24.283 9.812c.25.181.435.292.763.202.046-.402-.082-.382-.205-.657.02-.033.077-.074.088-.082.092-.122.046.05.092-.16-.24-.077-.63-.324-.66-.648.117-.094.081-.037.168-.094.19-.123.046.065.159-.144-.097-.189-.205-.222-.44-.127a3.153 3.153 0 0 0-.431.278c.036.501.333.694.543.924-.026.238-.082.176-.077.508z"/><path d="M31.758 13.226a1.45 1.45 0 0 1-.145-.312c-.312.102-.322.11-.691.172l-.017.022c-.147.21.008.122-.25.34-.307.257-.507.61-.85.82-.041.365.031.447-.061.881-.037.16-.216.59-.426.558-.067-.012-.349-.71-.415-.903-.113-.327-.24-.57-.322-.947-.046-.201-.078-.587-.124-.722-.22.032-.21.172-.42.025-.15-.108-.082-.173-.164-.333a62.686 62.686 0 0 0-.532-.492c-.139-.044-.672.033-.897.008-.405-.037-.44-.013-.68-.336-.427.02-.39.18-.806-.176-.271-.23-.22-.599-.614-.39-.016.337.15.41.297.566.108.12.24.2.297.36.005.005.03.156.036.177.384.025.476-.16.686-.315.205.192.005.225.302.377.236.12.19.05.344.242.077.258-.528.96-.728 1.087-.153.098-.236.04-.374.155-.204.173.026.148-.332.28-.385.14-.765.434-1.169.459-.087-.238-.174-.48-.26-.722-.257-.824-.247-.505-.507-.931-.124-.185-.073-.304-.154-.468-.057-.123-.144-.176-.221-.328-.117-.234-.255-.598-.527-.562-.056.185.25.808.328.96.077.152.199.218.236.435.051.3-.01.263.153.464.344.413-.015.34.517.746.4.303.298.395.467.8.26.074 1.04-.275 1.172-.172.159.283-.183.734-.271.98-.287.825-.789.812-1.173 1.444-.21.341-.307.386-.502.795-.22.464.446 1.748.046 2.286-.087.123-.368.197-.721.57-.375.406.01.336-.135 1.014-.112.155-.25.163-.39.274-.05.16-.009.287-.096.484-.092.237-.108.111-.242.304-.096.152-.086.212-.199.353-.097.127-.149.163-.24.246-.447.41-1.404.422-1.486.364-.226-.192-.072-.242-.128-.512-.055-.238-.18-.438-.286-.62l-.011-.02a1.436 1.436 0 0 1-.124-.258c-.184-.583-.117-1.026-.44-1.617-.405-.763.225-1.161.199-1.592-.01-.114-.051-.184-.062-.274-.077-.475-.123-.903-.44-1.276-.349-.406-.303-.263-.19-.931.144-.767-.184-.57-.645-.59-.226-.698-.666-.358-1.107-.153-.276.127-.379-.037-.691.008-.698.095-.149.394-1.08-.344-.39-.308-.129-.152-.36-.537-.077-.14-.312-.325-.42-.464-.353-.443.067-.89.005-1.398-.107-.944-.26-.124.267-1.264.277-.607.697-.611.804-.882.093-.242.03-.414.204-.636.154-.18.374-.144.46-.427.125-.348-.111-.393-.368-.402-.107-.364-.107-.274-.025-.61.046-.19.005-.28.046-.468.103-.472.907-.005 1.137-.197.107-.201.123-.398 0-.59-.129-.193-.297-.17-.384-.354.195-.131.051-.016.22-.053.2-.046.173-.103.41-.147.21-.042.344-.235.548-.366.292-.188.153-.357.507-.415.569-.098.2-.082.262-.61.086-.034.168-.07.25-.108.179.234-.046.14.17.296.055-.033.122-.066.183-.099-.031-.254-.149-.205-.226-.52-.281.045-.383.283-.61.197-.219-.083-.23-.399-.219-.661.082-.197.491-.304.65-.353.257-.087.22-.26.457-.493.307-.307.082.005.23-.394.339-.012.18-.024.38-.126l.01-.005.02-.008c.118-.054.272-.066.426-.119.563-.188.794-.094 1.203.074.318.131 1.276.135 1.348.537-.23.242-.451.066-.784.086.062.312.087.312.369.398.046-.148-.02-.09.057-.184.092.02.184.037.276.054.093-.317.2-.272.513-.308-.052-.218-.108-.156.01-.328.323.032.061.004.22.263.225-.03.446-.28.758-.313.195-.02.185.054.46.025.227-.025.216-.106.442-.012.082-.152 0-.148.2-.185.306-.054.573.135.87.177-.22-.272-.43-.218-.158-.67.343-.069.374-.02.522.239.084-.048.12-.096.161-.12a13.607 13.607 0 0 0-.459-.355l-.076-.055c-.11-.081-.22-.16-.332-.238-.036-.024-.07-.05-.106-.073a17.219 17.219 0 0 0-.409-.272l-.039-.024c-.126-.08-.253-.158-.382-.234l-.12-.072a16.263 16.263 0 0 0-.37-.21l-.063-.036a13.897 13.897 0 0 0-.43-.225c-.042-.02-.084-.04-.125-.062-.116-.056-.232-.113-.35-.167-.037-.017-.073-.035-.111-.051a13.904 13.904 0 0 0-.442-.194c-.04-.016-.079-.031-.118-.048a14.755 14.755 0 0 0-.356-.14 12.459 12.459 0 0 0-.594-.215l-.089-.029a15.507 15.507 0 0 0-.958-.285c-.024-.005-.046-.013-.069-.018-.158-.04-.317-.079-.476-.114l-.153-.034a15.32 15.32 0 0 0-.992-.18c-.048-.008-.097-.014-.145-.021a15.054 15.054 0 0 0-1.548-.138A18.112 18.112 0 0 0 16.039 0H16A15.928 15.928 0 0 0 5.684 3.772l.008.014c.02.034.035.034.056.12-.257.063-.258.106-.356.119l-.177.159c.187.064.432.02.615.013.067-.123.108-.23.225-.274.047-.017.103-.021.18-.017.01.061.025.123.041.184 0 .004.006.03.006.037.006-.004.01.026.014.038.324-.189.052-.193.225-.533-.271-.054-.234-.021-.404-.194.164-.18.481-.242.717-.225-.015.164-.092.16-.03.3.184-.116.312-.423.61-.366.055.04.122.079.184.115-.155.144-.385.153-.585.234-.087.89.282.144.16.755a.676.676 0 0 0 .516-.34c-.08-.108-.199-.108-.266-.235a.588.588 0 0 1 .318-.362.862.862 0 0 1 .374-.078c1.63.013.855.087 1.358.317.113.049.312.074.38.172.102.156.005.303.168.427.143.107.164-.005.354.233-.041.135-.139.275-.339.28-.276.004-.112-.186-.41-.157.006.279.282.386.026.538-.225.135-.082-.05-.25.045l-.027.016c-.01.008-.02.02-.026.029-.03.032-.055.062-.082.09-.41-.111-.332-.06-.578-.332-.092-.103-.108-.128-.272-.114-.102.003-.234.048-.333-.042.2-.25.297-.008.59-.156a3.67 3.67 0 0 0 .425-.332c-.087-.197-.01-.034-.138-.16-.287-.291-.37-.217-.759-.217-.182.21-.318.468-.517.582-.12.07-.262.085-.45.005.086.353.311.081.331.508-.148-.029-.225-.103-.38-.049-.327.123-.035.11-.009.176 0 .004.153.02 0 .077-.169.062-.026-.032-.354-.225.047-.081.093-.167.139-.254-.266.082-.6.213-.911.366-.354.175-.688.377-.886.56-.006.309.05.104.081.469.477.028.323.171.8.307.092.025.209.05.353.074 0 .23-.205.403-.062.64.333.234.343-.222.426-.512 1.127-.235.583-.567.875-1.187.044-.093.105-.192.195-.298.087.003.44.041.517.057.256.045.118.107.394.229-.005.222-.117.509.21.456.251-.044.195-.242.502-.291.139.324.103.464.164.853.738.287.41.52.266 1.058.093.045.19.087.287.128l-.015.46c-.015 0-.789-.168-.84-.185.118-.336.333-.34.47-.685-.276.05-.256.135-.455.197-.179.053-.317.017-.506.04.006.015.01.043.014.091.01.107.062.005-.01.12-.256-.12-.169-.399-.646-.14.108.05.215.094.328.14-.015.315-.04.077-.108.287-.163.537.446.205.605.176-.042.283-.215.283-.462.36-.271.083-.353.193-.568.244 0-.338-.05-.054.097-.288-.214.02-.374.12-.578.205l-.021.008c-.263.107-.303.123-.333.46-.225.07-.486.148-.645.311-.16.152-.318.304-.471.452l-.036.032c.057.424 0 .431-.257.595-.215.14-.287.137-.486.312-.64.574-.332.307-.298 1.296a7.432 7.432 0 0 1-.383-.13c-.098-.657.035-.44-.492-.592-.57-.163-.491.116-.727.165-.262.057-.39-.238-.769.008-.21.144-.41.238-.461.492-.062.308-.2.533-.179.873.036.923.876.977 1.09.546.144-.287.108-.443.574-.369.046.246-.025.427-.087.615-.041.111-.154.311-.098.464.333.135.344-.12.784.143.031.44-.2.932.14 1.185.26.193.276.021.506-.02.256-.045.21.115.445.152.135-.164.078-.062.164-.263.154-.348.195-.184.559-.398.035-.02.066-.04.102-.065.041.086.087.168.128.25.266-.316.298-.008.605.078.132.037.226.05.3.05.222.004.245-.105.55.004.036.016.082.028.124.04.005 0 .02.009.02.017l.025.02c.051.058.057.116.098.177.21.2.42.402.625.6.404.158.404-.141.866.306.195.184.107.181.215.42.015.036.046.073.067.118.04.111.087.217.133.324.21.275.496.103.788.386.169.164.041.114.415.18.58.094.354.042.795.374.168.123.21.054.369.159.22.308.163.641-.021.911-.569.828-.374.694-.4 1.35-.02.378-.127 1.157-.48 1.251-1.287.362-.54.612-.876 1.247-.098.18-.17.226-.232.37-.255.598-.076.8-.834.665.072.126.026.04.097.154.225.35.262.612-.2.698-.383.073-.22 0-.255.426-.15.062-.216 0-.312.1.133.245.01.04.235.18-.042.135-.072.266-.108.397-.087.32-.113.025-.144.398.134.062.225.05.344.21-.016.123-.138.46-.175.652.19.283.344.587.75.616-.006.237.05.213-.155.262-.173.04-.542-.123-.697-.205a1.87 1.87 0 0 1-.692-.602c-.102-.154-.06-.08-.168-.222-.195-.25-.118-.366-.174-.533-.031-.099-.19-.205-.124-.526.016-.09.16-.52-.014-.446-.175.069.133.04-.108.154a3.447 3.447 0 0 1-.134-.578c-.062-.323-.138-.336-.174-.533-.077-.456.118-.504-.098-1.264-.142-.501-.084-1.69-.233-2.3a.978.978 0 0 0-.09-.243c-.138-.23-.476-.336-.748-.52-.014-.005-.025-.009-.03-.017-.374-.262-.728-1.292-1.025-1.677-.138-.186-.226-.104-.287-.394-.067-.267.036-.222.123-.445-.456-.835.59-.824.374-1.829-.046-.185-.179-.443-.29-.524-.217.094-.114.147-.227.328-.174-.099-.348-.197-.517-.296-.528-.508-.246-.14-.394-.472-.319-.696-.62-.307-1-.651-.169-.144-.2-.37-.481-.328-.426.057-.19.123-.63-.083-.375-.177-.763-.381-1.025-.619-.014-.498.138-.45-.241-.91a16.063 16.063 0 0 0-.363 3.997l.005.117c.007.174.015.347.028.52l.002.02a15.483 15.483 0 0 0 .125 1.132l.008.056c.027.177.057.352.088.527l.02.097c.029.154.06.307.094.46.006.025.01.05.017.075.038.173.08.345.125.515.008.025.014.052.021.077.041.15.083.301.128.45l.025.084c.052.169.106.338.163.504l.017.05a18.571 18.571 0 0 0 .4 1.037c.066.158.138.316.21.47l.036.08c.151.319.311.632.482.939l.039.069a15.51 15.51 0 0 0 1.203 1.835l.032.04c.106.14.212.276.322.41l.009.011a16.919 16.919 0 0 0 .745.849c.25.265.51.521.778.77l.023.022c.268.247.543.485.827.713l.027.022a15.66 15.66 0 0 0 .904.673c.3.207.609.405.924.593l.026.015c.316.188.64.365.971.53.007.003.014.008.021.01A15.949 15.949 0 0 0 16 32c8.837 0 16-7.163 16-16 0-.946-.083-1.873-.242-2.774zM16.158 5.8c.04.092.082.181.128.272.062.254-.139.045.062.348.158.189.312.378.466.566-.098.283-.093.308-.37.332-.194.017-.414.07-.563.062.057-.365-.051-.176.036-.386.098-.25.113-.062.199-.303-.19-.283-.389-.09-.38-.665.181-.16.155-.134.422-.226zm8.417 14.793c-.082.226-.154.5-.23.743-.103.34-.344 1.427-.789.997-.149-.14-.144-.612-.047-.8.272-.509.026-.39.119-.78.07-.311.317-.234.501-.402.168-.147.2-.41.425-.524.22.31.103.524.021.766zm7.161-7.492l.022.125.002.004-.024-.13z"/></svg>
